<?xml version="1.0" encoding="utf-8"?>
<!-- Generator: Adobe Illustrator 21.0.2, SVG Export Plug-In . SVG Version: 6.00 Build 0)  -->
<svg version="1.1" id="Layer_1" xmlns="http://www.w3.org/2000/svg" xmlns:xlink="http://www.w3.org/1999/xlink" x="0px" y="0px"
	 viewBox="0 0 223.8 37.7" style="enable-background:new 0 0 223.8 37.7;" xml:space="preserve">
<style type="text/css">
	.st0{fill:#076C9F;}
	.st1{fill:#89C0E8;}
	.st2{fill:#F78F1E;}
</style>
<g>
	<path class="st0" d="M0,1.6h27.3c2,0,3.7,0.7,5.1,2.1c1.4,1.4,2.1,3.1,2.1,5V29c0,1.9-0.7,3.6-2.1,5c-1.4,1.4-3.1,2.1-5.1,2.1H0
		V1.6z M7.4,9.1v19.5H27V9.1H7.4z"/>
	<path class="st0" d="M59.9,8.3c1.9,0,3.6,0.7,4.9,2.1c1.4,1.4,2,3,2,4.9v20.8H45.7c-1.9,0-3.6-0.7-4.9-2.1s-2-3-2-4.9V18.5h20.8
		v-2.9H38.7V8.3H59.9z M59.6,28.8V25H46.1v3.8H59.6z"/>
	<path class="st0" d="M88.7,15.7H78.4v13.1h10.3v7.3H78.1c-1.9,0-3.6-0.7-5-2.1c-1.4-1.4-2-3-2-4.9V0.1h7.3v8.2h10.3V15.7z"/>
	<g>
		<path class="st1" d="M157.6,22c-0.5,0-0.8,0-1.2-0.1s-0.6-0.2-0.9-0.3v-1h0.1c0.3,0.2,0.6,0.4,0.9,0.6c0.4,0.1,0.7,0.2,1,0.2
			c0.5,0,0.8-0.1,1.1-0.3s0.4-0.4,0.4-0.7c0-0.2-0.1-0.4-0.2-0.6c-0.1-0.1-0.3-0.3-0.6-0.3c-0.2-0.1-0.4-0.1-0.5-0.1
			s-0.4-0.1-0.6-0.1c-0.2-0.1-0.4-0.1-0.6-0.2s-0.3-0.2-0.5-0.3c-0.1-0.1-0.2-0.3-0.3-0.5s-0.1-0.4-0.1-0.6c0-0.5,0.2-0.9,0.6-1.2
			c0.4-0.3,0.9-0.5,1.5-0.5c0.4,0,0.7,0,1,0.1c0.3,0.1,0.6,0.2,0.9,0.3v0.9h-0.1c-0.2-0.2-0.5-0.3-0.8-0.5c-0.3-0.1-0.6-0.2-1-0.2
			c-0.4,0-0.7,0.1-0.9,0.3c-0.2,0.2-0.4,0.4-0.4,0.7c0,0.3,0.1,0.5,0.2,0.6c0.1,0.1,0.3,0.3,0.6,0.3c0.2,0,0.4,0.1,0.7,0.2
			c0.3,0.1,0.5,0.1,0.6,0.2c0.4,0.1,0.8,0.3,1,0.6c0.2,0.3,0.3,0.6,0.3,0.9c0,0.2-0.1,0.5-0.2,0.7s-0.2,0.4-0.4,0.6
			c-0.2,0.2-0.4,0.3-0.7,0.4S158,22,157.6,22z"/>
		<path class="st1" d="M168.6,16.7c0.2,0.3,0.4,0.6,0.6,1c0.1,0.4,0.2,0.8,0.2,1.3c0,0.5-0.1,0.9-0.2,1.3s-0.3,0.7-0.6,1
			c-0.3,0.3-0.6,0.5-0.9,0.6c-0.3,0.1-0.7,0.2-1.1,0.2c-0.4,0-0.8-0.1-1.2-0.2c-0.3-0.1-0.6-0.3-0.9-0.6c-0.2-0.3-0.4-0.6-0.6-1
			c-0.1-0.4-0.2-0.8-0.2-1.3c0-0.5,0.1-0.9,0.2-1.3c0.1-0.4,0.3-0.7,0.6-1c0.2-0.3,0.5-0.5,0.9-0.6s0.7-0.2,1.2-0.2
			c0.4,0,0.8,0.1,1.2,0.2C168.1,16.2,168.4,16.4,168.6,16.7z M168.5,19c0-0.4,0-0.7-0.1-1s-0.2-0.6-0.4-0.8
			c-0.2-0.2-0.4-0.4-0.6-0.5s-0.5-0.2-0.8-0.2c-0.3,0-0.6,0-0.8,0.1c-0.2,0.1-0.4,0.3-0.6,0.5c-0.2,0.2-0.3,0.5-0.4,0.8
			c-0.1,0.3-0.1,0.7-0.1,1c0,0.8,0.2,1.4,0.5,1.8s0.8,0.6,1.4,0.6c0.6,0,1.1-0.2,1.4-0.6C168.3,20.3,168.5,19.7,168.5,19z"/>
		<path class="st1" d="M177.6,16.7h-2.9v1.7h2.8v0.7h-2.8v2.9h-0.8v-6h3.8V16.7z"/>
		<path class="st1" d="M183.4,21.9v-5.2h-2.1V16h5.1v0.7h-2.1v5.2H183.4z"/>
		<path class="st1" d="M197.5,16l-1.6,6H195l-1.3-4.9l-1.3,4.9h-0.9l-1.6-6h0.9l1.3,4.9l1.3-4.9h0.9l1.3,5l1.3-5H197.5z"/>
		<path class="st1" d="M200.9,21.9l2.1-6h1l2.1,6h-0.9l-0.6-1.7h-2.4l-0.6,1.7H200.9z M204.5,19.6l-1-2.8l-1,2.8H204.5z"/>
		<path class="st1" d="M215.1,21.9H214l-2-2.4h-1v2.4h-0.8v-6h1.6c0.4,0,0.7,0,0.9,0.1c0.2,0,0.5,0.1,0.7,0.3
			c0.2,0.1,0.4,0.3,0.5,0.5c0.1,0.2,0.2,0.5,0.2,0.8c0,0.4-0.1,0.8-0.4,1.1c-0.2,0.3-0.6,0.5-1,0.7L215.1,21.9z M213.3,17.7
			c0-0.2,0-0.3-0.1-0.5c-0.1-0.1-0.2-0.2-0.3-0.3c-0.1-0.1-0.3-0.1-0.4-0.2c-0.2,0-0.4,0-0.6,0h-0.8v2.2h0.7c0.2,0,0.5,0,0.6-0.1
			s0.4-0.1,0.5-0.2c0.1-0.1,0.2-0.2,0.3-0.4C213.3,18,213.3,17.9,213.3,17.7z"/>
		<path class="st1" d="M219.1,21.9v-6h3.9v0.7h-3.1v1.6h2.9V19h-2.9v2.2h3.1v0.7H219.1z"/>
	</g>
	<path class="st2" d="M146.3,0h8.4v2.8l-13.5,16.1l13.5,16v2.8h-8.4l-10.5-12.4l-10.4,12.4H117V35l13.5-16.1L117,2.8V0h8.4
		l10.5,12.4c1-1.3,2.8-3.4,5.2-6.3C143.6,3.2,145.3,1.2,146.3,0z"/>
	<polygon class="st0" points="115,35 115,34.2 115.4,33.7 119.7,28.6 100.4,28.6 100.4,22.6 120,22.6 120,15.1 100.4,15.1 
		100.4,9.1 119.7,9.1 115.4,4.1 115,3.5 115,2.8 115,1.6 92.9,1.6 92.9,36.1 115,36.1 	"/>
</g>
</svg>
