<?xml version="1.0" encoding="utf-8"?>
<!-- Generator: Adobe Illustrator 21.0.0, SVG Export Plug-In . SVG Version: 6.00 Build 0)  -->
<svg version="1.1" id="Layer_1" xmlns="http://www.w3.org/2000/svg" xmlns:xlink="http://www.w3.org/1999/xlink" x="0px" y="0px"
	 viewBox="0 0 181 96" style="enable-background:new 0 0 181 96;" xml:space="preserve">
<style type="text/css">
	.st0{fill-rule:evenodd;clip-rule:evenodd;fill:#89C0E8;}
</style>
<rect x="74.7" y="9.8" class="st0" width="17.2" height="55.2"/>
<rect x="96.7" y="20.2" class="st0" width="17.3" height="44.6"/>
<rect x="118.7" y="31.6" class="st0" width="17.3" height="33.2"/>
<rect x="140.8" y="0.6" class="st0" width="17.3" height="64.4"/>
<rect x="163.1" y="12.5" class="st0" width="17.4" height="52.4"/>
<path class="st0" d="M127.5,84v-2.7h6.1v-2.7h-6.1V76h6.1v-2.7h-6.1v-2.7h6.1v2.7h2.4V84H127.5L127.5,84z M158.2,78.6V76h-14.8v-2.7
	h14.8v-2.7H141V84h2.4v-5.3H158.2L158.2,78.6z M180.4,78.6V76h-14.8v-2.7h14.8v-2.7h-17.2V84h2.4v-5.3H180.4z M91.9,84v-8H77.2v-2.7
	h14.7v-2.7H74.7v8.1h14.8v2.7H74.7V84H91.9L91.9,84z M127.5,70.6v2.7h-8.6v-2.7H127.5L127.5,70.6z M127.5,76v2.7h-6.2v2.7h6.2V84
	h-8.6v-8H127.5L127.5,76z M96.8,84H114v-2.7H99.2v-8h12.3v-2.7H99.2v-2.7h-2.4V84z"/>
<path class="st0" d="M34.7,64.2h31.8V34.7H34.7H2.9v49.2h31.8h31.8v-9.8H34.7H12v-9.9H34.7z M12,44.6h22.7h22.7v9.8H34.7H12V44.6z"
	/>
</svg>
