<svg width="16" height="16" viewBox="0 0 16 16" fill="none" xmlns="http://www.w3.org/2000/svg">
<path d="M5 5C6.10457 5 7 4.10457 7 3C7 1.89543 6.10457 1 5 1C3.89543 1 3 1.89543 3 3C3 4.10457 3.89543 5 5 5Z" stroke="#315DFA" stroke-width="2"/>
<path d="M11 10C12.1046 10 13 9.10457 13 8C13 6.89543 12.1046 6 11 6C9.89543 6 9 6.89543 9 8C9 9.10457 9.89543 10 11 10Z" stroke="#315DFA" stroke-width="2"/>
<path d="M5 15C6.10457 15 7 14.1046 7 13C7 11.8954 6.10457 11 5 11C3.89543 11 3 11.8954 3 13C3 14.1046 3.89543 15 5 15Z" stroke="#315DFA" stroke-width="2"/>
<path d="M7 3L16 3" stroke="#315DFA" stroke-width="2"/>
<path d="M9 8H0" stroke="#315DFA" stroke-width="2"/>
<path d="M7 13L16 13" stroke="#315DFA" stroke-width="2"/>
<path d="M0 3H3" stroke="#315DFA" stroke-width="2"/>
<path d="M16 8L13 8" stroke="#315DFA" stroke-width="2"/>
<path d="M0 13H3" stroke="#315DFA" stroke-width="2"/>
</svg>
