<svg width="167" height="17" viewBox="0 0 167 17" version="1.1" xmlns="http://www.w3.org/2000/svg" xmlns:xlink="http://www.w3.org/1999/xlink">
<g id="Canvas" fill="none">
<g id="logo">
<g id="Vector">
<path d="M 7.62939e-07 2.7L 7.62939e-07 10.8L 14.8 10.8L 14.8 13.5L 7.62939e-07 13.5L 7.62939e-07 16.1L 17.2 16.1L 17.2 8.1L 2.5 8.1L 2.5 5.4L 17.2 5.4L 17.2 2.7L 7.62939e-07 2.7ZM 58.9 10.7L 58.9 13.4L 52.8 13.4L 52.8 13.5L 46.6 13.5L 46.6 10.8L 52.8 10.8L 52.8 10.7L 58.9 10.7ZM 52.8 2.7L 44.2 2.7L 44.2 5.4L 52.8 5.4L 58.9 5.4L 58.9 8.1L 52.8 8.1L 44.2 8.1L 44.2 16.1L 52.8 16.1L 61.3 16.1L 61.3 5.4L 58.9 5.4L 58.9 2.7L 52.8 2.7ZM 66.3 2.7L 66.3 16.1L 68.7 16.1L 68.7 10.8L 83.5 10.8L 83.5 10.7L 83.5 8.1L 68.7 8.1L 68.7 5.4L 83.5 5.4L 83.5 2.7L 66.3 2.7ZM 88.5 2.7L 88.5 16.1L 90.9 16.1L 90.9 10.8L 105.7 10.8L 105.7 10.7L 105.7 8.1L 90.9 8.1L 90.9 5.4L 105.7 5.4L 105.7 2.7L 88.5 2.7ZM 22.1 0L 22.1 16.1L 39.3 16.1L 39.3 13.4L 24.5 13.4L 24.5 5.4L 36.8 5.4L 36.8 2.7L 24.5 2.7L 24.5 0L 22.1 0Z" transform="translate(22.7 0)" fill="#003D85"/>
</g>
<g id="Vector_2">
<path d="M 2.5 2.7L 8.7 2.7L 14.9 2.7L 14.9 5.4L 8.7 5.4L 2.5 5.4L 2.5 2.7ZM 8.7 4.76837e-08L 0 4.76837e-08L 0 13.4L 8.7 13.4L 17.4 13.4L 17.4 10.7L 8.7 10.7L 2.5 10.7L 2.5 8L 8.7 8L 17.4 8L 17.4 4.76837e-08L 8.7 4.76837e-08Z" transform="translate(0 2.7)" fill="#003D85"/>
</g>
<g id="Vector_3">
<path d="M 3 0L 0 0L 0 14L 3 14L 3 0Z" transform="translate(144 2.10001)" fill="#F39C11"/>
</g>
<g id="Vector_4">
<path d="M 3 0L 0 0L 0 9L 3 9L 3 0Z" transform="translate(149 7.10001)" fill="#F39C11"/>
</g>
<g id="Vector_5">
<path d="M 3 0L 0 0L 0 5L 3 5L 3 0Z" transform="translate(154 11.1)" fill="#F39C11"/>
</g>
<g id="Vector_6">
<path d="M 3 0L 0 0L 0 14L 3 14L 3 0Z" transform="translate(159 2.10001)" fill="#F39C11"/>
</g>
<g id="Vector_7">
<path d="M 3 0L 0 0L 0 11L 3 11L 3 0Z" transform="translate(164 5.10001)" fill="#F39C11"/>
</g>
</g>
</g>
</svg>

