<svg width="40" height="32" viewBox="0 0 40 32" fill="none" xmlns="http://www.w3.org/2000/svg">
<path d="M20.848 1.35679C20.4563 0.730126 19.5437 0.730129 19.152 1.3568L0.956249 30.47C0.539969 31.1361 1.01881 32 1.80425 32H38.1958C38.9812 32 39.46 31.1361 39.0438 30.47L20.848 1.35679Z" fill="#F39C11"/>
<path fill-rule="evenodd" clip-rule="evenodd" d="M21 15C21 14.4477 20.5523 14 20 14C19.4477 14 19 14.4477 19 15V19C19 19.5523 19.4477 20 20 20C20.5523 20 21 19.5523 21 19V15ZM21.5 23.5C21.5 24.3 20.8 25 20 25C19.2 25 18.5 24.3 18.5 23.5C18.5 22.7 19.2 22 20 22C20.8 22 21.5 22.7 21.5 23.5Z" fill="white"/>
</svg>
