<svg width="36" height="36" viewBox="0 0 36 36" fill="none" xmlns="http://www.w3.org/2000/svg">
<rect width="36" height="36" fill="#E5E5E5"/>
<g id="ui">
<rect width="1440" height="1837" transform="translate(-624 -1015)" fill="white"/>
<g id="ico_pop_4">
<path id="Vector" d="M18 36C27.9 36 36 27.9 36 18C36 8.1 27.9 0 18 0C8.1 0 0 8.1 0 18C0 27.9 8.1 36 18 36Z" fill="#3598DB"/>
<g id="Union">
<path d="M17.3248 19.4472C17.1455 19.9422 17.0486 20.6165 17.0343 21.4701H19.0249C19.0249 20.3797 19.2867 19.544 19.8104 18.963L20.9832 17.8009C22.1453 16.5815 22.7263 15.3441 22.7263 14.0888C22.7263 12.8191 22.3461 11.822 21.5857 11.0975C20.8325 10.3658 19.7781 10 18.4223 10C17.1168 10 16.0551 10.3587 15.2374 11.076C14.4268 11.7861 14.0143 12.7223 14 13.8843H15.9906C15.9906 13.2316 16.213 12.7115 16.6577 12.3241C17.1024 11.9368 17.6907 11.7431 18.4223 11.7431C19.1755 11.7431 19.7494 11.9583 20.1439 12.3887C20.5384 12.8119 20.7357 13.4001 20.7357 14.1533C20.7357 14.9352 20.4344 15.6669 19.8319 16.3484L18.4223 17.8009C17.87 18.4035 17.5041 18.9523 17.3248 19.4472Z" fill="white"/>
<path d="M16.5 25C16.5 24.2 17.2 23.5 18 23.5C18.8 23.5 19.5 24.2 19.5 25C19.5 25.8 18.8 26.5 18 26.5C17.2 26.5 16.5 25.8 16.5 25Z" fill="white"/>
</g>
</g>
</g>
</svg>
