<svg width="36" height="36" viewBox="0 0 36 36" fill="none" xmlns="http://www.w3.org/2000/svg">
<path d="M18 36C27.9 36 36 27.9 36 18C36 8.1 27.9 0 18 0C8.1 0 0 8.1 0 18C0 27.9 8.1 36 18 36Z" fill="#3598DB"/>
<path d="M18 23V17" stroke="white" stroke-width="2" stroke-linecap="round"/>
<path d="M18 10.5C17.2 10.5 16.5 11.2 16.5 12C16.5 12.8 17.2 13.5 18 13.5C18.8 13.5 19.5 12.8 19.5 12C19.5 11.2 18.8 10.5 18 10.5Z" fill="white"/>
<path d="M21 24H15" stroke="white" stroke-width="2" stroke-linecap="round"/>
<path d="M18 17H15" stroke="white" stroke-width="2" stroke-linecap="round"/>
</svg>
